<?xml version="1.0" standalone="no"?>
<!DOCTYPE svg PUBLIC "-//W3C//DTD SVG 1.1//EN" "http://www.w3.org/Graphics/SVG/1.1/DTD/svg11.dtd" >
<svg xmlns="http://www.w3.org/2000/svg" xmlns:svg="http://www.w3.org/2000/svg" xmlns:xlink="http://www.w3.org/1999/xlink" viewBox="0 0 1024 1024"><path d="M438.12 798.49Q453.95 769.08 426.28 807.68Q448.01 777.96 473.34 796.14Q428.91 779.63 482.41 735.25Q475.48 734.26 434.23 670.22Q421.01 640.47 435.09 558.34Q461.9 584.97 406.3 579.63Q455.98 516.25 443.36 521.93Q417.12 528.69 399.82 521.25Q417.76 513.97 446.2 489.71H557.34L549.05 517.83Q503.62 506.39 507.78 462.54Q526.22 464.65 503.5 473.41Q527.52 471.92 534.39 487.96Q471.11 436.61 490.04 466.13Q451.68 418.46 466.92 420.47Q470.33 405.36 440.22 422.9Q466.96 401.42 477.79 416.77Q484.79 414.59 456.4 388.39Q498.46 432.54 504.14 408.99Q526.2 388.65 564.22 420.96Q667.1 374.85 637.42 389.86Q617.7 443.04 676.9 419.46Q635.63 415.78 640.96 458.74Q632.91 468.39 671.09 431.24Q614.29 476.34 582.64 456.62Q620.13 440.57 565.74 428.99Q610.53 471.65 610.27 444.84Q592.97 499.59 559.59 509.8V486.27L608.68 509.84Q593.04 508.74 626.53 507.1Q658.6 523.76 684.3 532.77Q685.88 493.93 676.5 548.57Q672.55 573.75 670.29 541.33Q645.43 540.61 684.61 609.85Q619.93 601.41 617.16 700.87Q638.16 745.77 627.32 776.73Q651.97 799.31 642.07 775.62Q628.4 752.16 631.94 763.18Q671.58 804.89 652.12 819.51Q683.18 833.88 679.37 794.16Q699.81 832.27 655.05 837.81Q680.38 803.51 619.97 871.46Q624.86 841.82 626.02 882.89Q682.04 901.74 619.97 953.07Q602.04 940.73 626.88 907.49Q615.34 952.97 582.82 909.78Q586.64 921.34 622.53 888.29Q593.97 874.2 566.28 889.18L616.27 842.54H537.38Q486.93 843.66 441.83 816.2Q463.2 844.27 394.98 832.57Q444.77 823.8 415.7 847.26Q448.48 818.65 419.27 813.69ZM294.49 892.15Q320.14 859.12 329.56 791.29Q317.76 725.08 356.6 657.57Q326.22 570.71 375.48 416.96Q335.04 401.96 339.66 361.97Q329.12 334.64 384.67 340.99L377.41 294.19L552.92 330.82Q606.34 330.65 670.24 293.04Q743.7 297.7 804.05 312.9Q946.61 302.24 931.72 353.83Q924.12 332.15 923.76 349.64Q952.52 363.92 943.06 326.03Q968.67 333.22 951.68 404.02Q939.53 368.32 957.89 372.91Q928.52 365.65 880.2 393.16Q852.48 386.53 741.3 410.13Q667.5 402.14 560.09 364.44H525.33Q480.26 390.62 444.35 386L407.16 350.38L402.51 438.9Q385.04 545.56 398.26 692.54Q395.3 835.35 406.21 834.46Q384.32 925.75 363.82 919.35Q360.18 965.02 334.43 946.49Q338.17 937.21 292.02 918.22Q284.86 913.98 318.22 902.29ZM68.55 500.18Q94.72 399.64 177.96 260.9Q215.9 202.47 219.46 179.31Q244.89 152.38 232.57 145.51Q248.72 144.06 241.72 122.96Q253.64 124.24 275.14 107.28Q241.52 74.24 282.41 85.76Q300.22 99.39 315.05 61.06Q278.88 50.15 338.38 93.24L352.14 99.82L285.43 173.65Q289.22 208.42 312.45 238.67Q282.38 258.81 284.68 275.79Q231.56 248.03 288.67 354.16Q220.52 364.54 239.13 497.56Q245.38 548.41 246.07 632.69Q219.84 817.13 262.88 862.67Q274.05 931.32 221.52 925.95Q203.61 973.02 210.9 955.92Q176.12 912.52 214.3 937.7Q178.53 922.25 183.62 865.25Q157.21 876.19 187.48 744.88Q197.08 713.59 204.61 634.44Q203.86 573.52 190.76 484.54Q197.4 432.22 185.36 427.79Q161.06 454.37 164.04 430.82Q169.46 491.79 122.31 494.45Q110.6 509.11 120.98 501.72Q113.42 518.5 117.85 549.14Q128.33 532.07 123.58 556.85Q52.44 510.15 75.9 498.34Q64.36 530.85 44.42 480.02Q89.69 514.77 59.96 531.77Q103.39 490.21 80.12 455.35ZM657.69 584.8Q660.38 591.18 655.66 590.19Q717.32 550.76 699.8 527.85Q734.29 492.7 682.99 490.86Q697.24 427.9 711.94 405.32Q744.27 384.62 691.03 415.48Q717.53 394.5 717.66 387.81Q758.61 400.85 772.25 367.69Q783.64 398.98 783.57 421.09Q736.14 402.15 736.5 470.73Q787.52 440.75 773.2 420.21V485.83H842.94Q869.4 496.15 876.21 482.02Q875.03 497.2 912.84 497.02Q879.38 495.98 913.87 546.52Q862.11 556.39 857.48 609.18Q858.38 604.1 839.14 626.33L867.33 677.71Q823.2 685.07 843.5 693.19Q860.68 691.56 856.12 726.9Q833.24 738.7 887.98 810.41Q968.66 871.79 933.47 865.14Q973.06 911.98 955.09 873.93Q974.77 913.5 960.06 918.84Q954.43 930.8 953.5 946.96Q952.46 928.22 917.04 941.8Q903.66 895.76 876.74 898.57Q891.48 854.54 897.5 880.21Q868.28 840.79 867.09 828.92Q810.76 834.05 813.21 776.42Q840.28 789.54 775.59 813.93Q786.46 791.37 821.33 781.07Q823.93 789.5 789.14 831.06Q755.9 883.63 733.93 863.61Q781.7 923.91 772.01 923.05Q733.43 894.79 693.53 945.45Q739.51 914.29 745.83 934.72Q727.25 882.99 691.08 921.98Q694.87 889.33 693.42 909.69Q663.01 898.79 685.55 912.72Q662.67 896.05 694.23 863.16Q728.41 849.29 743.3 778.38Q765.92 721.98 788.06 731.01Q778.54 735.12 741.19 694.6Q693.87 632.19 720.11 658.5Q707.34 631.14 683.72 635.94Q660.25 622.59 644.61 648.24Q669.42 642.28 673.13 631.67Q674.63 634.89 659.83 598.4ZM409.91 99.47Q438.78 96 484.82 105.2Q470.21 136.58 477.76 129.79Q564.55 74.04 597.2 100.27Q573.98 128.33 578.65 122.74Q623.7 131.67 581.92 85Q597.38 77.78 606.61 148.17Q643.56 130.87 654.35 205.34Q660 219.41 609.4 214.5Q641.31 296.37 632.74 297.39Q592.14 284.98 562.64 298.35Q565.03 312.28 521.95 308.11Q529.96 270.69 473.66 290.56Q436.42 291.55 438.52 311.68Q400.35 316.72 376.68 243.5Q412.08 270.53 403.04 257.89Q367.38 257.73 363.68 189.27Q364.12 194.55 392.53 117Q406.99 152.64 390.52 138.92ZM652.71 164.42Q661.44 142.37 646.44 127.47Q672.64 114.45 664.22 87.47Q741.54 135 780.68 118.68Q821.73 113.42 798.07 87.11Q905.24 128.49 871.98 126.44Q933.06 98.42 906.17 123.89Q914.04 157.7 902.09 156.76Q879.81 176.03 928.05 188.77Q915.67 240.68 884.6 250.52Q932.58 235.95 916.33 246.54Q913.74 308.73 918.44 298.35Q911.36 323.5 834.06 313.58Q803.28 312.34 725.35 308.21Q708.05 299.27 648.44 277.97Q662.77 295.32 657.34 206.37ZM462.67 251.41Q444.45 235.81 495.51 213.93Q529.21 270.19 492.63 258.4H568.89V167.65H486.13V182.34Q464.56 181.43 454.76 190.04Q428.69 214.34 472.79 264.82ZM727.23 216.94Q714.26 225.57 791.05 254.13Q769.28 234.45 799.45 262.79Q795.86 247.14 788.07 238.05Q826.1 249.48 812.71 217.38Q873.09 242.82 818.93 174.71Q809.87 195.23 813.64 221.2L836.19 143.38H724.68V183.83Q742.69 201.73 735.65 206.71Q723.59 214.85 746.22 257.13ZM774.45 627.15Q731.65 583.36 769.53 596.38Q798.34 607.17 788.48 643.82L810.23 626.23L809.53 579.07Q845.76 578.08 805.79 582.52Q828.95 546.38 825.37 538.92Q829.7 558.15 773.4 519.21Q739.65 521.45 765.51 523.1Q742.56 535.51 717.57 550.65Q746.61 553.76 736.97 553.83Q755.79 591.73 712.92 589.99ZM496.73 616.53Q549.54 606.62 529.36 613.21Q526.35 572.01 537.15 579.59Q565.17 624.16 572.56 590.65Q548.66 583.76 614.33 568.71Q617.05 611.13 559.55 599.22Q620.68 587.95 555.76 588.5Q571.18 570.46 583.51 536.13Q551.24 561.59 559.15 553.25Q576.69 547.33 515.5 569.46Q559.28 596.76 513.75 575.36Q532.68 576.16 485.74 577.91Q531.8 556.6 520.28 603.69Q503.69 559.03 546.5 591.53Q537.99 562.57 485.83 563.21ZM528.22 785.8Q503.48 778.26 567.36 748.15Q581.5 757.21 549.81 758.26Q610.35 782.72 611.28 752.36Q581.67 793.67 581.48 792.15Q556.73 775.16 576.35 787.06Q569.01 769 576.39 740.2Q540.32 763.75 538.66 764.22Q532.16 708.89 541.54 728.43Q487.79 733.69 498.81 757.36Q524.56 776.49 521.36 738.88ZM485.05 671.13Q490.48 678.04 541.66 682.17Q530.4 713.96 579.95 713.7Q588.33 676.59 583.55 672.94Q569.97 665.05 581.72 648.49Q578.31 680.21 573.79 650.92Q586.72 661.46 603.78 661.39Q545.56 688.5 529.2 654.47Q558.3 684.52 535.96 632.2Q531.97 626.28 509.86 682.55Q504.54 653.15 501.74 689.84Z" fill="black"></path></svg>