<?xml version="1.0" standalone="no"?>
<!DOCTYPE svg PUBLIC "-//W3C//DTD SVG 1.1//EN" "http://www.w3.org/Graphics/SVG/1.1/DTD/svg11.dtd" >
<svg xmlns="http://www.w3.org/2000/svg" xmlns:svg="http://www.w3.org/2000/svg" xmlns:xlink="http://www.w3.org/1999/xlink" viewBox="0 0 1024 1024"><path d="M424.5 807.5Q428.5 792.5 441.5 788.5Q451.5 788.5 453.0 776.0Q454.5 763.5 454.5 751.5Q454.5 725.5 451.5 673.5Q448.5 614.5 445.5 584.5Q442.5 554.5 437.5 547.5Q431.5 538.5 431.5 529.5Q431.5 527.5 432.5 520.5Q433.5 513.5 442.5 511.5H523.5L527.5 488.5Q529.5 478.5 529.5 471.5Q529.5 463.5 526.0 459.0Q522.5 454.5 504.5 454.5Q495.5 454.5 487.0 452.5Q478.5 450.5 475.5 446.5Q467.5 438.5 467.5 426.5Q467.5 425.5 468.0 418.0Q468.5 410.5 478.5 403.5Q491.5 400.5 527.5 400.5Q544.5 400.5 591.0 402.0Q637.5 403.5 649.5 410.5Q651.5 414.5 653.5 421.0Q655.5 427.5 655.5 434.5Q655.5 446.5 641.0 454.0Q626.5 461.5 603.5 461.5Q599.5 460.5 596.5 460.5Q589.5 460.5 586.5 464.5Q583.5 468.5 583.5 488.5V513.5L608.5 509.5Q617.5 508.5 625.5 508.5Q650.5 508.5 659.5 518.0Q668.5 527.5 668.5 536.5Q668.5 547.5 658.5 562.5Q653.5 567.5 651.0 592.5Q648.5 617.5 648.5 675.5Q648.5 745.5 650.0 762.0Q651.5 778.5 658.5 778.5Q659.5 778.5 660.5 778.5Q682.5 779.5 683.0 790.5Q683.5 801.5 683.5 802.5Q683.5 821.5 664.5 830.5Q653.5 833.5 651.0 842.0Q648.5 850.5 648.5 871.5Q648.5 907.5 642.0 924.0Q635.5 940.5 619.5 940.5Q603.5 940.5 598.0 927.5Q592.5 914.5 592.5 892.5Q592.5 885.5 592.5 877.5L594.5 839.5H514.5Q475.5 839.5 454.0 837.5Q432.5 835.5 426.5 832.5Q422.5 827.5 422.5 819.5Q422.5 814.5 424.5 807.5ZM293.5 906.5Q293.5 886.5 307.5 801.5Q318.5 738.5 327.5 659.5Q336.5 580.5 351.5 434.5Q354.5 403.5 358.0 376.5Q361.5 349.5 365.5 338.5L370.5 319.5L536.5 317.5Q609.5 316.5 671.5 316.5Q748.5 316.5 831.5 318.5Q914.5 320.5 927.5 326.5Q939.5 331.5 940.5 341.5Q941.5 351.5 941.5 355.5Q941.5 366.5 936.5 374.5Q930.5 378.5 924.5 381.0Q918.5 383.5 912.5 383.5Q869.5 383.5 755.0 383.0Q640.5 382.5 579.5 380.5H514.5Q480.5 380.5 462.5 382.5L423.5 383.5L419.5 466.5Q415.5 540.5 401.5 672.0Q387.5 803.5 376.5 851.5Q365.5 902.5 351.0 917.5Q336.5 932.5 324.5 932.5Q315.5 932.5 306.5 927.5Q293.5 925.5 293.5 906.5ZM84.5 467.5Q99.5 430.5 169.5 284.5Q194.5 234.5 210.5 198.5Q226.5 162.5 226.5 158.5Q226.5 155.5 233.0 144.5Q239.5 133.5 246.5 119.5Q262.5 90.5 271.5 87.0Q280.5 83.5 284.5 83.5Q296.5 83.5 311.5 95.5L324.5 108.5L302.5 169.5Q293.5 196.5 283.5 222.5Q273.5 248.5 266.5 263.5Q257.5 275.5 255.5 323.5Q253.5 371.5 253.5 493.5Q253.5 541.5 253.5 603.5Q253.5 819.5 252.0 872.5Q250.5 925.5 239.5 925.5Q228.5 940.5 218.0 940.5Q207.5 940.5 194.5 927.5Q185.5 927.5 183.5 892.0Q181.5 856.5 181.5 734.5Q181.5 685.5 181.5 621.5Q181.5 545.5 180.0 494.5Q178.5 443.5 176.5 441.5Q174.5 441.5 166.5 454.0Q158.5 466.5 149.5 484.5Q135.5 517.5 123.0 526.0Q110.5 534.5 101.5 534.5Q96.5 534.5 90.5 531.5Q84.5 529.5 80.0 523.5Q75.5 517.5 73.5 509.5Q72.5 508.5 72.5 505.5Q72.5 495.5 84.5 467.5ZM670.5 609.5Q671.5 596.5 684.5 556.5Q691.5 531.5 697.5 503.5Q703.5 475.5 707.5 457.5Q711.5 441.5 715.0 427.0Q718.5 412.5 720.5 407.5Q723.5 403.5 729.0 400.0Q734.5 396.5 741.5 396.5Q756.5 396.5 761.0 409.0Q765.5 421.5 765.5 443.5Q765.5 447.5 765.5 452.5V481.5H819.5Q860.5 481.5 881.0 488.5Q901.5 495.5 901.5 509.5Q900.5 515.5 895.0 537.0Q889.5 558.5 878.5 585.5Q869.5 614.5 861.5 642.5L849.5 684.5Q845.5 695.5 845.5 706.5Q845.5 717.5 853.0 734.5Q860.5 751.5 916.5 828.5Q945.5 869.5 948.5 881.5Q951.5 893.5 951.5 896.5Q951.5 909.5 939.5 914.5Q934.5 917.5 930.5 917.5Q925.5 917.5 919.0 913.5Q912.5 909.5 891.5 886.5Q876.5 871.5 864.0 855.5Q851.5 839.5 846.5 830.5Q835.5 810.5 825.5 798.0Q815.5 785.5 808.5 785.5Q806.5 785.5 798.5 800.0Q790.5 814.5 781.5 835.5Q770.5 857.5 760.5 875.5Q750.5 893.5 743.5 900.5Q730.5 913.5 723.0 914.0Q715.5 914.5 715.5 914.5Q702.5 914.5 693.5 904.5Q688.5 899.5 688.5 894.5Q688.5 893.5 689.0 890.0Q689.5 886.5 696.5 873.5Q718.5 839.5 741.0 791.5Q763.5 743.5 765.5 731.5Q761.5 715.5 735.5 684.0Q709.5 652.5 696.5 648.5Q693.5 648.5 688.0 644.0Q682.5 639.5 676.5 632.5Q670.5 624.5 670.5 612.5Q670.5 611.5 670.5 609.5ZM400.5 114.5Q413.5 103.5 477.5 103.5Q487.5 103.5 498.5 103.5Q540.5 101.5 569.0 100.5Q597.5 99.5 603.5 99.5Q606.5 98.5 609.5 98.5Q622.5 98.5 628.0 114.5Q633.5 130.5 635.5 189.5Q637.5 213.5 637.5 231.5Q637.5 273.5 625.5 286.0Q613.5 298.5 558.5 298.5Q545.5 298.5 529.5 297.5Q511.5 298.5 496.5 298.5Q455.5 298.5 433.0 293.5Q410.5 288.5 406.5 274.5Q403.5 268.5 400.5 247.0Q397.5 225.5 396.5 196.5Q391.5 167.5 391.5 148.5Q391.5 122.5 400.5 114.5ZM655.5 194.5Q655.5 128.5 662.5 112.5Q666.5 108.5 694.0 106.5Q721.5 104.5 779.5 104.5Q788.5 104.5 797.5 104.5Q873.5 104.5 890.5 112.0Q907.5 119.5 907.5 141.5Q907.5 149.5 905.5 158.5Q903.5 173.5 902.5 195.0Q901.5 216.5 901.5 234.5Q901.5 252.5 899.0 267.0Q896.5 281.5 894.5 286.5Q878.5 295.5 812.5 295.5Q797.5 295.5 741.0 294.0Q684.5 292.5 662.5 281.5Q655.5 261.5 655.5 194.5ZM461.5 232.5Q469.5 239.5 501.5 239.5Q508.5 239.5 516.5 239.5H570.5V157.5H453.5V184.5Q453.5 190.5 453.5 196.5Q453.5 224.5 461.5 232.5ZM722.5 227.5Q730.5 234.5 762.5 234.5Q769.5 234.5 777.5 234.5Q787.5 234.5 795.5 234.5Q826.5 234.5 833.0 229.5Q839.5 224.5 839.5 208.5Q839.5 199.5 837.5 187.5L835.5 162.5H712.5V184.5Q712.5 187.5 712.5 189.5Q712.5 219.5 722.5 227.5ZM745.5 601.5Q750.5 608.5 758.5 617.5Q766.5 626.5 775.5 634.5L795.5 648.5L813.5 601.5Q820.5 581.5 825.0 566.5Q829.5 551.5 829.5 545.5Q829.5 538.5 793.5 538.5Q768.5 538.5 761.5 542.0Q754.5 545.5 747.5 562.5Q739.5 576.5 739.5 583.5Q739.5 590.5 745.5 601.5ZM519.5 595.5Q524.5 597.5 535.5 597.5Q542.5 597.5 552.5 596.5Q562.5 597.5 569.5 597.5Q580.5 597.5 584.5 595.5Q588.5 593.5 588.5 586.5Q588.5 584.5 588.5 581.5Q588.5 572.5 581.5 570.0Q574.5 567.5 554.5 565.5Q546.5 564.5 539.5 564.5Q526.5 564.5 520.0 567.5Q513.5 570.5 513.5 580.5Q513.5 582.5 513.5 585.5Q513.5 586.5 513.5 588.5Q513.5 593.5 519.5 595.5ZM524.5 762.5Q536.5 770.5 556.5 772.5Q562.5 773.5 568.5 773.5Q579.5 773.5 584.0 770.5Q588.5 767.5 588.5 763.5Q588.5 759.5 585.5 754.5Q577.5 747.5 558.0 745.0Q538.5 742.5 530.5 742.5Q519.5 742.5 514.5 745.5Q513.5 747.5 513.5 748.5Q513.5 755.5 524.5 762.5ZM518.5 666.5Q522.5 680.5 537.5 683.0Q552.5 685.5 558.5 685.5Q573.5 685.5 581.5 677.5Q585.5 671.5 587.0 669.0Q588.5 666.5 588.5 664.5Q586.5 664.5 577.0 663.0Q567.5 661.5 552.5 659.5Q538.5 656.5 530.5 656.5Q527.5 656.5 523.0 658.0Q518.5 659.5 518.5 666.5Z" fill="black"></path></svg>